<?xml version="1.0" standalone="no"?>
<!DOCTYPE svg PUBLIC "-//W3C//DTD SVG 20010904//EN"
 "http://www.w3.org/TR/2001/REC-SVG-20010904/DTD/svg10.dtd">
<svg version="1.0" xmlns="http://www.w3.org/2000/svg"
 width="560.000000pt" height="218.000000pt" viewBox="0 0 560.000000 218.000000"
 preserveAspectRatio="xMidYMid meet">

<g transform="translate(0.000000,218.000000) scale(0.100000,-0.100000)"
fill="#000000" stroke="none">
<path d="M575 1881 c-54 -24 -79 -64 -79 -124 0 -62 24 -93 106 -137 86 -46
98 -57 98 -91 0 -57 -76 -76 -159 -39 -24 11 -45 20 -47 20 -2 0 -4 -20 -4
-44 0 -40 3 -45 33 -57 17 -8 64 -14 102 -14 90 0 131 22 164 88 42 86 6 158
-106 209 -72 32 -100 65 -83 97 14 28 55 37 104 22 61 -18 70 -18 74 2 8 39
-7 63 -46 75 -56 17 -111 14 -157 -7z"/>
<path d="M3849 1885 c-87 -28 -147 -110 -156 -215 -11 -115 33 -206 120 -253
35 -18 57 -22 132 -21 61 0 102 5 128 17 l38 16 -3 123 -3 123 -100 0 -100 0
0 -35 0 -35 53 -3 52 -3 0 -58 c0 -65 -6 -71 -67 -71 -81 0 -139 57 -150 148
-18 156 103 241 259 182 29 -11 54 -20 56 -20 1 0 2 18 2 40 0 34 -4 42 -32
56 -44 23 -171 28 -229 9z"/>
<path d="M314 1877 c-2 -7 -3 -116 -2 -242 l3 -230 43 -3 42 -3 0 245 0 246
-40 0 c-24 0 -43 -5 -46 -13z"/>
<path d="M890 1870 c-7 -12 -9 -100 -8 -242 l3 -223 45 0 45 0 3 98 3 97 28 0
c43 0 67 -27 105 -115 l35 -80 42 -3 c23 -2 46 1 51 6 12 12 -53 166 -85 200
-18 20 -19 26 -7 30 8 3 27 18 42 33 24 23 28 36 28 82 0 103 -55 137 -223
137 -86 0 -97 -2 -107 -20z m208 -76 c28 -19 29 -67 2 -94 -15 -15 -33 -20
-70 -20 l-50 0 0 65 0 65 48 0 c27 0 57 -7 70 -16z"/>
<path d="M1445 1880 c-22 -35 -164 -465 -157 -472 5 -5 26 -8 47 -6 36 3 39 6
55 53 l17 50 95 3 95 3 19 -53 19 -53 48 -3 c37 -2 47 0 47 12 0 20 -150 447
-163 464 -11 14 -113 17 -122 2z m120 -271 c6 -17 1 -19 -64 -19 l-70 0 30 88
c16 48 32 94 35 102 5 13 32 -54 69 -171z"/>
<path d="M1802 1878 c-17 -17 -17 -449 0 -466 8 -8 55 -12 145 -12 l133 0 0
40 0 40 -95 0 -95 0 0 70 0 70 79 0 c71 0 80 2 86 20 3 11 3 29 0 40 -6 18
-15 20 -86 20 l-79 0 0 55 0 55 95 0 95 0 0 40 0 40 -133 0 c-90 0 -137 -4
-145 -12z"/>
<path d="M2177 1884 c-13 -13 -8 -459 5 -472 8 -8 53 -12 135 -12 l123 0 0 40
0 40 -85 0 -85 0 -2 203 -3 202 -40 3 c-23 2 -44 0 -48 -4z"/>
<path d="M2683 1879 c-18 -18 -18 -450 -1 -467 8 -8 46 -12 103 -12 201 0 282
63 293 226 7 115 -29 193 -111 236 -34 18 -63 23 -157 26 -84 3 -118 0 -127
-9z m224 -89 c43 -26 63 -58 69 -116 8 -65 -9 -124 -46 -159 -26 -25 -40 -30
-95 -33 l-65 -4 0 166 0 166 53 0 c34 0 63 -7 84 -20z"/>
<path d="M3172 1878 c-17 -17 -17 -449 0 -466 8 -8 55 -12 145 -12 l133 0 0
40 0 40 -95 0 -95 0 0 70 0 70 79 0 c71 0 80 2 86 20 3 11 3 29 0 40 -6 18
-15 20 -86 20 l-79 0 0 55 0 55 95 0 95 0 0 40 0 40 -133 0 c-90 0 -137 -4
-145 -12z"/>
<path d="M4217 1884 c-10 -11 -8 -312 3 -358 11 -49 37 -85 81 -111 46 -27
168 -28 222 -1 80 40 99 106 95 327 l-3 144 -45 0 -45 0 -5 -175 c-3 -96 -9
-183 -14 -193 -11 -23 -58 -47 -91 -47 -33 0 -80 24 -91 47 -5 10 -11 97 -14
193 l-5 175 -40 3 c-23 2 -44 0 -48 -4z"/>
<path d="M4734 1877 c-2 -7 -3 -116 -2 -242 l3 -230 43 -3 42 -3 0 245 0 246
-40 0 c-24 0 -43 -5 -46 -13z"/>
<path d="M5045 1880 c-22 -35 -164 -465 -157 -472 5 -5 26 -8 47 -6 36 3 39 6
55 53 l17 50 95 3 95 3 19 -53 19 -53 48 -3 c37 -2 47 0 47 12 0 20 -150 447
-163 464 -11 14 -113 17 -122 2z m120 -271 c6 -17 1 -19 -64 -19 l-70 0 30 88
c16 48 32 94 35 102 5 13 32 -54 69 -171z"/>
<path d="M1975 1211 c-102 -25 -154 -84 -162 -184 -4 -50 -1 -73 15 -110 25
-57 60 -83 248 -183 168 -89 195 -117 195 -200 1 -84 -22 -119 -96 -150 -70
-29 -267 -17 -368 22 -16 6 -18 2 -15 -27 3 -30 8 -35 48 -48 30 -9 93 -15
186 -15 137 -1 142 0 200 29 78 40 106 89 106 180 -1 74 -24 127 -75 172 -18
16 -96 61 -173 101 -171 88 -206 120 -211 194 -5 72 18 116 77 146 38 20 57
23 125 20 79 -4 128 -20 197 -64 26 -17 28 -17 47 1 25 22 17 35 -46 71 -79
47 -208 66 -298 45z"/>
<path d="M3509 1207 c-61 -17 -131 -59 -163 -98 -143 -169 -141 -528 3 -692
18 -20 62 -51 98 -69 85 -42 205 -50 324 -23 l79 18 0 193 c0 106 -3 194 -7
196 -5 2 -70 2 -145 0 -138 -4 -138 -4 -138 -28 0 -24 0 -24 115 -24 l116 0
-3 -147 -3 -147 -30 -8 c-16 -5 -69 -10 -117 -10 -79 -1 -93 2 -152 31 -95 47
-146 117 -172 239 -28 132 -10 290 41 379 33 55 97 108 153 127 98 34 236 13
298 -45 20 -19 21 -19 42 4 l22 23 -23 22 c-63 59 -232 89 -338 59z"/>
<path d="M4975 1211 c-102 -25 -154 -84 -162 -184 -4 -50 -1 -73 15 -110 25
-57 60 -83 248 -183 168 -89 195 -117 195 -200 1 -84 -22 -119 -96 -150 -70
-29 -267 -17 -368 22 -16 6 -18 2 -15 -27 3 -30 8 -35 48 -48 30 -9 93 -15
186 -15 137 -1 142 0 200 29 78 40 106 89 106 180 -1 74 -24 127 -75 172 -18
16 -96 61 -173 101 -171 88 -206 120 -211 194 -5 72 18 116 77 146 38 20 57
23 125 20 79 -4 128 -20 197 -64 26 -17 28 -17 47 1 25 22 17 35 -46 71 -79
47 -208 66 -298 45z"/>
<path d="M290 764 l0 -446 158 4 c109 4 170 10 200 21 156 59 225 184 226 407
1 124 -13 198 -50 271 -70 140 -176 188 -416 189 l-118 0 0 -446z m353 357
c102 -50 158 -153 172 -317 13 -153 -28 -291 -106 -357 -58 -50 -122 -67 -250
-67 l-109 0 0 386 0 386 123 -4 c101 -4 130 -9 170 -27z"/>
<path d="M1050 765 l0 -445 280 0 280 0 0 30 0 30 -250 0 -250 0 2 177 3 178
193 3 192 2 0 25 0 25 -192 2 -193 3 -3 178 -2 177 250 0 250 0 0 30 0 30
-280 0 -280 0 0 -445z"/>
<path d="M2560 1180 l0 -30 110 0 110 0 0 -385 0 -385 -110 0 -110 0 0 -30 0
-30 255 0 255 0 0 30 0 30 -115 0 -115 0 0 385 0 385 115 0 115 0 0 30 0 30
-255 0 -255 0 0 -30z"/>
<path d="M4050 765 l0 -445 30 0 30 0 2 412 3 412 184 -412 184 -412 48 0 49
0 0 446 0 445 -27 -3 -28 -3 -3 -415 -3 -415 -186 418 -186 417 -48 0 -49 0 0
-445z"/>
</g>
</svg>
